<svg xmlns="http://www.w3.org/2000/svg" viewBox="0 0 64 64" role="img" aria-label="SkillSync logo mark">
  <defs>
    <linearGradient id="skillsyncMarkGradient" x1="10" y1="8" x2="54" y2="58" gradientUnits="userSpaceOnUse">
      <stop offset="0%" stop-color="#D6EBFF"/>
      <stop offset="42%" stop-color="#1F618D"/>
      <stop offset="100%" stop-color="#154360"/>
    </linearGradient>
    <filter id="softShadow" x="-20%" y="-20%" width="140%" height="140%">
      <feDropShadow dx="0" dy="6" stdDeviation="5" flood-color="#0F172A" flood-opacity="0.18"/>
    </filter>
  </defs>
  <rect x="6" y="6" width="52" height="52" rx="18" fill="url(#skillsyncMarkGradient)" filter="url(#softShadow)"/>
  <path d="M42.5 21.5C39.8 18.9 36.2 17.7 31.9 17.7C25.8 17.7 21.6 20.6 21.6 25C21.6 29.6 25.8 31 31 32.1C36.2 33.2 38.8 34 38.8 36.7C38.8 39.2 36.2 40.7 32.2 40.7C28.2 40.7 24.9 39.2 22.2 36.5" fill="none" stroke="#FFFFFF" stroke-width="5" stroke-linecap="round"/>
  <path d="M20.8 46.4L26.2 51.5L44.6 32.8" fill="none" stroke="#FFFFFF" stroke-width="4.6" stroke-linecap="round" stroke-linejoin="round"/>
  <path d="M45.4 16.5H50.2V21.3" fill="none" stroke="#FFFFFF" stroke-width="3.6" stroke-linecap="round" stroke-linejoin="round" opacity="0.88"/>
</svg>
